<svg width="521" height="313" viewBox="0 0 521 313" fill="none" xmlns="http://www.w3.org/2000/svg">
<g clip-path="url(#clip0_1_135)">
<path d="M27.1827 312.301C27.1479 312.147 23.777 296.788 30.6612 284.031C37.5452 271.275 52.2399 265.65 52.3875 265.594L53.0591 265.342L53.2178 266.042C53.2526 266.195 56.6234 281.554 49.7394 294.311C42.8556 307.067 28.1606 312.693 28.013 312.748L27.3411 313L27.1827 312.301ZM52.1381 267.049C49.1946 268.314 37.5776 273.852 31.7634 284.625C25.9487 295.4 27.703 308.142 28.2624 311.293C31.2047 310.031 42.8171 304.503 48.6371 293.717C54.4515 282.943 52.6978 270.202 52.1381 267.049Z" fill="#F1F1F1"/>
<path d="M44.4786 289.836C32.1076 297.273 27.3431 312.045 27.3431 312.045C27.3431 312.045 42.636 314.759 55.007 307.322C67.3781 299.885 72.1426 285.113 72.1426 285.113C72.1426 285.113 56.8496 282.399 44.4786 289.836Z" fill="#F1F1F1"/>
<path d="M231.822 170.615C232.011 169.642 231.984 168.64 231.743 167.678C231.502 166.717 231.053 165.82 230.427 165.051C229.802 164.282 229.015 163.659 228.122 163.226C227.23 162.794 226.254 162.562 225.262 162.548L219.533 148.152L209.929 149.497L218.305 169.713C218.391 171.379 219.085 172.956 220.257 174.145C221.429 175.334 222.996 176.052 224.662 176.164C226.329 176.275 227.978 175.771 229.298 174.749C230.617 173.726 231.516 172.255 231.822 170.615Z" fill="#9F616A"/>
<path d="M214.128 165.557L211.153 158.466L192.608 123.195L193.616 57.9291L193.81 57.9035C205.676 56.3369 213.705 110.968 214.041 113.295L225.758 153.335L228.547 162.161L214.128 165.557Z" fill="#1F1E1D"/>
<path d="M185.634 303.18L194.65 303.179L198.94 268.429L185.632 268.43L185.634 303.18Z" fill="#9F616A"/>
<path d="M183.334 300.238L201.091 300.238H201.091C204.092 300.238 206.971 301.429 209.093 303.55C211.215 305.67 212.407 308.546 212.407 311.545V311.912L183.335 311.913L183.334 300.238Z" fill="white"/>
<path d="M102.731 289.453L110.129 294.604L133.532 268.545L122.614 260.942L102.731 289.453Z" fill="#9F616A"/>
<path d="M102.528 285.726L117.096 295.87L117.097 295.87C119.559 297.585 121.238 300.207 121.766 303.159C122.294 306.111 121.626 309.151 119.911 311.612L119.7 311.913L95.8478 295.305L102.528 285.726Z" fill="white"/>
<path d="M180.679 295.012L180.289 229.823L174.616 188.832L164.039 224.88L164.018 224.909L125.689 280.512L110.774 272.961L110.856 272.767C111.767 270.601 133.245 219.724 139.018 219.724C139.522 219.759 140.027 219.671 140.49 219.468C140.952 219.265 141.359 218.953 141.673 218.558C143.368 216.297 141.988 211.5 141.974 211.451C140.321 204.604 144.476 202.272 145.304 201.883L147.53 155.969L147.761 155.985L208.105 160.215L205.573 217.619L200.128 292.83L199.941 292.852L180.679 295.012Z" fill="white"/>
<path d="M209.027 170.388L208.766 170.367L143.867 165.14L144.027 143.684L147.204 87.6599L147.222 87.621L160.158 59.5595L169.328 55.4105L182.706 54.707L182.739 54.7152L194.949 57.7378L207.65 148.843L209.027 170.388Z" fill="#1F1E1D"/>
<path d="M184.803 47.5154C193.083 42.9924 196.127 32.6184 191.6 24.3444C187.073 16.0704 176.691 13.0296 168.411 17.5526C160.13 22.0755 157.087 32.4495 161.614 40.7235C166.14 48.9975 176.522 52.0383 184.803 47.5154Z" fill="#9F616A"/>
<path d="M159.422 36.8198V30.1675C159.422 30.1675 154.053 23.8492 159.959 22.2576C159.959 22.2576 161.57 6.34172 175.529 13.7691C175.529 13.7691 194.857 10.586 192.71 21.7271C192.71 21.7271 197.542 18.8185 195.931 26.2459L192.816 38.2102C192.816 38.2102 194.321 30.3069 189.488 29.2458L186.804 27.6542C186.804 27.6542 179.287 35.0817 168.013 26.0627C168.013 26.0627 163.181 24.9103 163.718 29.6851C164.254 34.4598 159.422 36.8198 159.422 36.8198Z" fill="#2F2E41"/>
<path d="M174.828 154.365C174.839 153.374 174.632 152.393 174.222 151.49C173.812 150.588 173.209 149.786 172.456 149.142C171.702 148.497 170.816 148.025 169.861 147.76C168.905 147.494 167.903 147.442 166.925 147.605L158.703 134.47L149.497 137.516L161.367 155.901C161.751 157.525 162.718 158.952 164.084 159.912C165.45 160.871 167.121 161.297 168.78 161.107C170.44 160.918 171.972 160.127 173.086 158.885C174.201 157.642 174.82 156.034 174.828 154.365Z" fill="#9F616A"/>
<path d="M153.594 150.225L138.721 120.052L138.734 119.978C138.794 119.644 144.781 86.4274 149.36 74.218C153.968 61.9312 160.275 59.4643 160.541 59.3653L160.675 59.3158L166.33 64.7363L158.496 116.987L166.941 142.187L153.594 150.225Z" fill="#1F1E1D"/>
<path d="M521 0H492.202V28.7755H521V0Z" fill="#1F1E1D"/>
<path d="M295.623 111.974H266.825V140.75H295.623V111.974Z" fill="#1F1E1D"/>
<path d="M282.989 128.14H510.666V12.9702H282.989V128.14Z" fill="white"/>
<path d="M512.544 130.017H281.111V11.0935H512.544V130.017ZM284.867 126.264H508.788V14.8468H284.867V126.264Z" fill="#1F1E1D"/>
<path d="M485.489 53.3697H310.318V59.1743H485.489V53.3697Z" fill="#1F1E1D"/>
<path d="M485.489 67.4466H310.318V73.2512H485.489V67.4466Z" fill="#1F1E1D"/>
<path d="M485.489 88.2316H452.935V93.2689H485.489V88.2316Z" fill="#FF0000"/>
<path d="M239.15 312.975H0.626062C0.460024 312.975 0.300786 312.909 0.18338 312.792C0.0659731 312.674 1.52588e-05 312.515 1.52588e-05 312.349C1.52588e-05 312.183 0.0659731 312.024 0.18338 311.907C0.300786 311.79 0.460024 311.724 0.626062 311.724H239.15C239.316 311.724 239.475 311.79 239.593 311.907C239.71 312.024 239.776 312.183 239.776 312.349C239.776 312.515 239.71 312.674 239.593 312.792C239.475 312.909 239.316 312.975 239.15 312.975Z" fill="#CBCBCB"/>
</g>
<defs>
<clipPath id="clip0_1_135">
<rect width="521" height="313" fill="white"/>
</clipPath>
</defs>
</svg>
